<svg xmlns="http://www.w3.org/2000/svg" viewBox="0 0 495.03493 536.4638">
  <defs>
	<filter id='insetshadow'>
		<feGaussianBlur stdDeviation='100' result='offset-blur' />
		<feFlood flood-color='' flood-opacity='.95' result='color' />
		<feComposite operator='in' in='color' in2='offset-blur' result='shadow' />
		<feComposite operator='over' in2='shadow' in='SourceGraphic' />
	</filter>
	<style>
	g:hover
	{
        filter: url(#insetshadow);
	}
	</style>
  </defs>
  <g style="fill: #fff">
    <path d="M331.15775,376.48465c-3.29056-1.74585-6.006-2.74732-8.20785-4.4234-19.981-15.20975-40.193-30.14283-59.67221-45.97525-12.08854-9.82538-23.09632-20.99335-34.38636-31.77115-1.3302-1.26984-1.93133-3.88788-1.932-5.88123q-.02985-92.71779.1813-185.43562a136.00823,136.00823,0,0,1,.69895-15.45233c.244-2.09453,1.85775-4.05878,2.96154-6.01857C234.729,74.553,238.81107,67.66394,242.642,60.63759A102.03244,102.03244,0,0,1,277.81638,22.728a192.6083,192.6083,0,0,1,28.605-15.01955A95.94509,95.94509,0,0,1,343.25974.069c16.934-.02616,34.26422-.67851,50.683,2.6239,13.60456,2.73638,27.09372,9.32313,38.88486,16.91918,12.98819,8.36724,24.20215,19.59024,35.71066,30.09332,3.67011,3.34944,6.109,8.20787,8.58808,12.66672,4.2315,7.611,8.05011,15.45163,12.04053,23.19661a5.00807,5.00807,0,0,1,.64465,1.34367c1.71155,10.5064,4.75592,21.005,4.85364,31.53008.52758,56.81306.32544,113.633.35766,170.45048.00074,1.31653-.20056,2.63318-.29889,3.8425-34.18765,29.59366-69.47427,57.41745-107.36569,84.18366-1.24539-3.54929-2.38013-5.28656-2.38879-7.02939-.165-33.31635-.477-66.63663-.08374-99.94815.11471-9.71674,2.27066-19.41556,3.62539-29.10379a6.63187,6.63187,0,0,1,1.81223-3.44281c13.24554-13.4765,26.57285-26.87262,39.84418-40.32389,5.24936-5.32052,10.628-10.53729,15.55471-16.14654,6.63727-7.55689,6.53434-23.92267-.8005-30.69386-3.08066-2.844-8.20291-4.63858-12.48169-4.81116-14.63953-.59041-29.31662-.24594-43.97937-.2659-4.60834-.00627-6.27448,2.41125-7.5604,6.82014-4.63995,15.90825-1.77,32.09339-2.45925,48.12464-.24762,5.76013-2.08255,8.18985-7.952,7.94754-7.31854-.3021-14.659-.03815-21.98926-.1012-5.71136-.04907-8.60339-3.112-8.6698-8.73215-.10626-8.99539.15372-18.00122-.1853-26.9859a148.71815,148.71815,0,0,0-2.10648-21.69473c-.38974-2.08362-3.93243-5.04858-6.08709-5.09752-16.81772-.38206-33.64963-.19668-50.4765-.08526-6.02781.03993-8.99183,4.58027-11.87528,8.86486-3.88831,5.77771-3.56226,20.149,1.34543,25.0234,10.22369,10.15438,21.1633,19.58377,31.5404,29.58932,7.27619,7.01569,13.76841,14.864,21.22135,21.672,10.31467,9.42206,8.27038,22.027,8.52942,33.42868.80969,35.63632.40091,71.30047.417,106.95386C332.15354,372.28808,331.66962,373.695,331.15775,376.48465Zm107.72067-50.144q-.86852-1.36308-1.737-2.7261c-4.48492,2.29517-9.046,4.45435-13.43859,6.91434-8.6543,4.84668-17.21515,9.86017-25.81467,14.80468q-1.27593-.61592-2.55188-1.23181.87414,4.87042,1.74835,9.74085c2.80911-.66629,6.13049-.59525,8.33728-2.12845,8.85394-6.15125,17.3815-12.77438,25.987-19.2796C433.9705,330.49817,436.39246,328.37707,438.87842,326.34063Zm-152.2583-.31964c-1.292,6.57917,26.86414,28.88855,33.68531,28.59726,3.07959-4.7507,3.0411-11.80386-.27964-14.82583l-5.05185,3.29779Z"/>
    <path d="M197.15017,293.50091c-4.66881-2.68319-8.71823-5.01043-12.76764-7.33764L183.0152,287.395c1.1354,1.61013,1.99334,3.55017,3.45153,4.77646,8.92215,7.50326,18.03666,14.77746,26.97487,22.262,6.73693,5.64127,6.66226,5.73047,11.58078,15.8576,4.89471-2.18991,9.83386-4.39965,15.16644-6.78546,4.594,7.235-.32678,11.50244-5.27725,18.58048,2.25427,1.09475,4.83267,1.79532,6.71475,3.34274,33.71112,27.717,67.474,55.375,100.84949,83.49231,5.58545,4.70551,10.32043,10.47845,18.21814,9.11407,7.41149-1.28027,9.7709,3.86,13.98886,8.65662l-74.748,89.772c-2.35422-4.56042-4.10251-7.8089-5.71951-11.12146-1.39255-2.85272-2.06049-6.27575-4.05234-8.57873-5.94891-6.87818-5.87054-14.78223-5.37665-23.09406.9252-15.57116,1.73505-31.15936,2.04288-46.75128.0997-5.05108-2.26779-8.73736-7.90094-11.27112-5.31122-2.389-9.27725-7.79712-13.79031-11.92611-8.32245-7.61417-16.58832-15.29038-24.93073-22.88254a44.37092,44.37092,0,0,0-7.359-5.9689c-2.699-1.55106-5.954-2.09806-8.81937-3.405-3.97647-1.81375-8.21051-3.417-11.60992-6.04673-3.76038-2.90887-6.11255-2.80157-9.19946.77878-5.05911,5.868-8.03371,12.19031-8.56377,20.14777-.27669,4.15372-2.54733,8.674-5.15927,12.075a295.18225,295.18225,0,0,1-21.23746,25.06342c-5.68919,5.90863-12.94973,9.2752-22.30826,6.44329-9.51687,11.36939-19.16082,22.89063-28.66883,34.24945-9.081-2.3186-15.93224-6.41308-20.91314-14.50177,9.47579-11.43957,18.86591-22.77569,28.85155-34.83081-1.14012-1.42956-2.176-3.26855-3.69073-4.53448-6.643-5.55164-13.62674-10.70972-20.09442-16.45255-5.58434-4.95846-10.73983-10.41723-15.90455-15.827-8.19549-8.58435-6.5961-18.0249-2.35066-27.8039a128.56,128.56,0,0,0,4.83116-14.064c2.0123-6.65805,3.82152-13.378,5.68016-20.08179,1.9861-7.16357,4.10811-14.29681,5.81856-21.52658.93041-3.93265-.70453-6.61108-4.46011-8.9592-5.885-3.67953-11.19208-8.31-16.61093-12.70184-7.24589-5.87256-14.38957-11.8725-21.51129-17.8956-1.07017-.90506-1.78239-2.23334-3.27263-4.15595l5.38155-3.49438c-2.69187-3.26871-5.0151-6.08975-7.8014-9.47311,2.012-2.2237,3.67333-4.05988,5.71844-6.32019,10.1402,8.41491,19.69986,16.34811,29.56763,24.53695,1.32875-.72232,2.52854-1.37451,5.26293-2.86093l-33.647-28.124c.22749-2.31021.4198-4.26319.69344-7.04212-4.23325-3.60147-8.683-7.54846-13.30172-11.28662-14.61816-11.83114-29.3774-23.4906-43.8319-35.51715-1.394-1.15982-2.2295-5.54016-1.31109-6.50082,4.66233-4.87668,9.989-9.11832,15.08284-13.58243l-.78976-1.70868c1.691.85609,3.611,1.43436,5.03791,2.61078Q44.005,192.10175,68.152,212.29754c3.80553,3.17612,7.42223,6.72147,11.5704,3.75794,18.24671,6.49621,31.42894,18.70834,45.24469,30.12173,6.578,5.43418,14.058,9.78546,21.209,14.50659.98028.64716,2.42343.59321,3.84578.90647.47412-1.3306,1.272-2.381,1.0395-3.09668-3.16177-9.73261,5.36154-13.40158,10.11432-18.71784,1.31394-1.46972,6.32668-1.76086,7.97363-.46762,13.06887,10.262,25.71431,21.062,38.53679,31.6398,3.868,3.19086,3.53366,6.33057.43131,9.80939C204.59141,284.71121,201.19846,288.78372,197.15017,293.50091ZM162.492,365.18911l-1.8064-1.82794a45.39817,45.39817,0,0,1,3.3927-5.478c2.40639-2.91736,2.15113-5.64234-.56227-7.86533q-16.20643-13.27729-32.63154-26.28674c-4.008-3.17661-7.71686-2.45859-9.62815,2.33786-3.29408,8.26669-6.21675,16.68567-9.13737,25.09558-2.81587,8.1083-5.86636,16.17386-8.0069,24.46646-1.92473,7.45663-4.36206,15.51849,2.781,21.88028,6.58293,5.86294,13.30669,11.58774,20.22834,17.04367,4.92169,3.87942,9.2405,3.04339,13.28617-1.89249,5.27047-6.43011,10.69794-12.74316,15.7029-19.37448,2.47424-3.27817,4.15308-7.15671,6.0195-10.4588,4.429-4.159,9.54027-7.79407,12.90659-12.64108,1.54055-2.2182.834-7.72113-.98362-10.12085-2.39109-3.15686-5.05331.10379-7.16864,2.3674C165.74377,363.65509,163.97654,364.29,162.492,365.18911Z"/>
  </g>
</svg>
