<svg xmlns="http://www.w3.org/2000/svg" viewBox="0 0 561.03675 369.02724">
  <defs>
	<filter id='insetshadow'>
		<feGaussianBlur stdDeviation='10' result='offset-blur' />
		<feFlood flood-color='' flood-opacity='.95' result='color' />
		<feComposite operator='in' in='color' in2='offset-blur' result='shadow' />
		<feComposite operator='over' in2='shadow' in='SourceGraphic' />
	</filter>
	<style>
	g:hover
	{
        filter: url(#insetshadow);
	}
	</style>
  </defs>
  <g style="fill: #fff">
    <path d="M437.04409,216.68246,572.53068,82.86371l1.20821.26371a38.89181,38.89181,0,0,1,.631,4.92547c.05085,12.00345-.08034,24.00861.08308,36.01a10.71335,10.71335,0,0,1-3.48061,8.35709Q513.24214,190.2072,455.643,248.12522c-21.01871,21.09334-41.904,42.32316-63.14995,63.18534a137.64789,137.64789,0,0,1-52.69758,32.29052,140.85686,140.85686,0,0,1-57.58691,6.765c-37.0438-3.08958-67.49564-18.92026-93.42552-45.12744Q103.15753,218.69746,16.966,132.71666c-.93677-.94-1.81285-1.94052-2.72925-2.9257V83.68164l1.09606-.55362L148.88109,217.37781l1.61359-.22644c-2.41865-60.11763,22.213-105.90077,73.00352-136.82222,24.80909-15.10387,52.6999-19.97766,81.57845-17.992,39.60108,2.72294,71.7931,20.504,97.6577,50.0109C428.79975,142.0841,439.17133,177.33989,437.04409,216.68246ZM294.22578,95.17436c-61.76439.52866-110.29839,48.489-110.83973,110.14982-.55967,63.7472,48.98787,111.8285,109.59285,112.34317,61.33478.52084,111.02888-48.05227,111.317-110.596C404.58505,144.29812,355.40141,95.96253,294.22578,95.17436Z" transform="translate(-13.62346 -22.19183)"/>
    <path d="M573.93606,26.94522V73.42316q-63.917,63.095-129.39367,127.72963c-.29427-1.16882-.74494-2.63833-1.02923-4.13932-2.13233-11.257-3.62669-22.67548-6.46688-33.74932-5.99265-23.36507-18.43881-43.20361-34.93069-60.64275C387.63748,87.31175,370.909,75.09858,351.35326,67.314,325.031,56.83577,297.772,53.32385,269.565,57.94506c-39.77044,6.51567-70.9798,27.068-95.55682,58.223a130.59574,130.59574,0,0,0-25.51,55.65279c-1.77813,8.79618-2.985,17.70741-4.49459,26.559a19.65,19.65,0,0,1-.85406,2.78986L14.18354,73.72784V26.53925c2.96769,2.83149,5.0962,4.77153,7.1246,6.81117q48.3503,48.61787,96.69835,97.23794c1.66233,1.66972,3.622,3.04328,5.47361,4.57992,36.5208-74.875,95.34674-112.89437,178.14072-112.97645C377.3169,28.3842,431.40351,65.76242,464.20418,135.6334c18.68831-17.82578,36.327-36.17407,54.39168-54.08358C536.74936,63.55223,554.985,45.63751,573.93606,26.94522Z" transform="translate(-13.62346 -22.19183)"/>
    <path d="M15.35575,139.55091Q35.27091,159.43446,55.18006,179.324q66.23508,66.51672,132.41919,133.0842a147.4787,147.4787,0,0,0,127.00085,42.9679c34.96927-5.02383,63.87718-20.95163,88.53919-45.84222q83.57184-84.34624,167.52384-168.31573c.67546-.67875.89992-1.80653,1.50738-3.08872,2.50255,4.19162,3.21855,34.12711,1.68961,49.06491-6.12667,5.81277-13.53829,12.51411-20.58254,19.58179q-67.22484,67.44816-134.34908,134.9965a150.57645,150.57645,0,0,1-51.33237,33.66869c-11.99257,4.767-24.30837,9.14215-36.86759,11.96207-18.77551,4.21574-37.9944,4.72757-57.17855,2.5663a179.25118,179.25118,0,0,1-49.64615-12.481c-21.3237-8.9597-40.62283-21.172-57.01924-37.65274Q92.18171,264.7492,17.49417,189.64723a11.69984,11.69984,0,0,1-3.86753-9.20212c.2331-11.8311.06583-23.66982.09748-35.50545.00463-1.73292.24473-3.46519.37587-5.19777Z" transform="translate(-13.62346 -22.19183)"/>
    <path d="M293.7829,311.13431c-56.79266.98214-104.405-48.32288-104.13021-105.12444.27429-56.70249,46.256-104.96544,104.07652-104.9393,58.37976.0264,104.51972,48.2868,104.41365,105.635C398.038,263.41027,350.743,312.006,293.7829,311.13431Zm-.04432-31.54248c39.9374.91238,73.12107-33.88635,73.07337-73.35262-.04722-39.043-31.75778-73.33635-72.55443-73.50425-40.74252-.16767-72.85371,33.35093-73.24732,73.23026C220.62007,245.48994,254.33853,280.49356,293.73858,279.59183Z" transform="translate(-13.62346 -22.19183)"/>
    <path d="M294.04121,243.15783c-19.414.75708-36.474-16.8632-36.27323-36.5698a36.9485,36.9485,0,0,1,36.625-36.43837c19.26369-.112,36.5523,17.06075,36.24912,37.29514C330.36431,225.9846,313.83032,244.18388,294.04121,243.15783Z" transform="translate(-13.62346 -22.19183)"/>
  </g>
</svg>
