<svg xmlns="http://www.w3.org/2000/svg" viewBox="0 0 336.57474 313.56291">
  <defs>
    <style>
      .a {
        fill: #fff;
      }
    </style>
  </defs>
  <g>
    <path class="a" d="M275.93807,37.02671c6.3986-.70986,10.12222,1.65448,13.29352,7.79339,6.29546,12.18652,14.03784,23.62023,21.04106,35.44865,4.7315,7.99157,9.183,16.14831,13.82991,24.19066,5.3055,9.18229,10.52607,18.42028,16.10416,27.43573,2.96018,4.7843,2.79412,8.971-.57913,13.29507q-26.35107,33.77844-52.65792,67.5914c-4.62335,5.94662-7.94929,6.04047-14.28913,2.12711-11.69726-7.22041-23.78833-13.80139-35.68749-20.69687q-18.90561-10.9557-37.75233-22.01287c-3.84569-2.25674-8.16416-4.11676-11.20908-7.20157-2.498-2.53073-4.80271-6.59369-4.83968-10.003-.35031-32.32256-.15168-64.65071-.23611-96.97692-.01307-5.01414,1.36124-8.33751,6.89116-9.10756,26.05376-3.62791,52.09088-7.375,78.13787-11.05181C270.6225,37.4858,273.28638,37.29939,275.93807,37.02671Z" transform="translate(-7.95468 -9.98094)"/>
    <path class="a" d="M169.09673,106.52083c0,15.33511-.57586,30.70019.22048,45.99384.46237,8.88-4.384,13.12763-10.69014,16.85246-13.26428,7.83477-26.63084,15.49887-40.02748,23.10615-8.51047,4.83267-17.19338,9.36132-25.71575,14.17369-4.754,2.68444-9.46676,5.48224-13.96472,8.569-5.42487,3.72282-8.8238,3.67575-12.89813-1.42258-8.71463-10.90486-17.24748-21.95552-25.81137-32.98015-9.06924-11.67521-17.98187-23.47392-27.17927-35.04676-3.89-4.89469-3.8779-9.09457-.51736-14.45832,7.218-11.52067,13.74982-23.47093,20.57227-35.23966q10.60412-18.29214,21.226-36.57395c3.32835-5.735,6.23676-11.78141,10.16465-17.07116,1.86821-2.51594,5.67308-5.026,8.60749-5.034C80.18491,37.37,87.30294,38.72975,94.392,39.69728c21.77512,2.97191,43.5287,6.10375,65.31418,8.99658,8.13494,1.0802,9.3866,2.1421,9.40357,10.32147.03288,15.83511.00962,31.67033.00962,47.5055Z" transform="translate(-7.95468 -9.98094)"/>
    <path class="a" d="M273.939,231.91107c-4.39819,11.41085-8.1375,21.49593-12.16469,31.46475-5.21072,12.89839-10.65519,25.70236-15.99088,38.55032-2.28872,5.51117-3.82377,11.53175-7.1183,16.35273-1.88,2.75116-6.59906,4.97735-10.06422,5.01229-35.14256.35467-70.29039.27186-105.43609.13735-5.60876-.02146-9.20681-2.72094-11.37191-8.56571-4.6557-12.56841-10.38094-24.73626-15.45189-37.15646-6.0101-14.72034-11.79238-29.53365-18.31351-45.91461,6.99316-4.43357,13.6154-8.85261,20.4513-12.912,9.24793-5.49176,18.66226-10.70324,28.00087-16.04251q18.97914-10.85112,37.94608-21.72353c1.72632-.99109,3.25619-2.6638,5.086-3.06293,3.55371-.77519,8.03094-2.38386,10.76292-.98561,12.07718,6.1813,23.66,13.32614,35.44163,20.08751q13.15086,7.54715,26.352,15.00666c8.20908,4.64723,16.5023,9.15014,24.62841,13.93728C269.24069,227.59534,271.36237,229.81057,273.939,231.91107Z" transform="translate(-7.95468 -9.98094)"/>
    <path class="a" d="M341.53411,167.06505c.88144,2.04331,2.29027,4.01964,2.55954,6.14062,1.88645,14.86108-2.47041,27.87712-10.77547,40.30022-7.71338,11.53809-13.97832,24.04076-20.95892,36.07355-4.15243,7.15787-8.48961,14.20837-12.68115,21.3439-4.53229,7.71562-9.04511,15.44373-13.46757,23.22259-4.06,7.14143-10.67394,11.135-17.67722,14.69248-3.0603,1.55459-6.13486,3.08113-9.20292,4.62039q-1.08243-.7083-2.16482-1.41663c.8243-3.437,1.24879-7.03322,2.54293-10.28316,5.26573-13.22368,10.80379-26.3388,16.23045-39.49851,7.328-17.77055,14.808-35.28456,27.774-50.12519,11.54243-13.2112,21.7251-27.61179,32.456-41.5274a33.61143,33.61143,0,0,0,2.45408-4.36279Z" transform="translate(-7.95468 -9.98094)"/>
    <path class="a" d="M92.95038,313.54942c-4.636-2.39738-9.17568-5.00838-13.92711-7.1496-11.34639-5.11317-14.94687-16.46218-20.91683-25.81993-5.33487-8.36222-9.93859-17.18862-14.93482-25.76957-5.091-8.74377-10.31553-17.41-15.39236-26.16186-4.913-8.46948-9.20642-17.34825-14.68916-25.42479C6.14131,192.9876,8.1499,181.86411,8.46216,170.8491c.0369-1.30142,1.96361-2.54923,3.97442-4.98487,17.66463,23.30252,37.07306,44.29639,50.921,68.47429,13.744,23.99641,22.97,50.79059,32.00617,77.17737Q94.15709,312.53262,92.95038,313.54942Z" transform="translate(-7.95468 -9.98094)"/>
    <path class="a" d="M263.03158,23.62827c-3.278,1.04572-6.487,2.562-9.84612,3.05493-13.83186,2.02987-27.72206,3.65908-41.56475,5.61967-7.07917,1.00265-14.10613,2.37758-21.1516,3.61337-13.539,2.37478-26.8113.74219-40.15919-1.95089-8.78589-1.77266-17.84165-2.16568-26.73844-3.44222-9.71956-1.39459-19.4086-3.01952-29.07777-4.73136-1.78986-.31688-3.42218-1.52338-5.39559-2.44457.78288-1.4913,1.00965-2.768,1.69865-3.10786,8.98943-4.43407,17.185-10.35662,28.13817-10.25516q57.23567.53012,114.47894-.00207c11.66426-.10287,19.97164,6.63176,29.46929,11.09809Q262.95734,22.35424,263.03158,23.62827Z" transform="translate(-7.95468 -9.98094)"/>
  </g>
</svg>
