<svg xmlns="http://www.w3.org/2000/svg" viewBox="0 0 595.276 841.89">
  <defs>
	<filter id='insetshadow'>
		<feGaussianBlur stdDeviation='100' result='offset-blur' />
		<feFlood flood-color='' flood-opacity='.95' result='color' />
		<feComposite operator='in' in='color' in2='offset-blur' result='shadow' />
		<feComposite operator='over' in2='shadow' in='SourceGraphic' />
	</filter>
	<style>
	g:hover
	{
        filter: url(#insetshadow);
	}
	</style>
  </defs>
  <g style="fill: #fff">
    <path d="M362.247,550.08658c-3.29056-1.74585-6.006-2.74732-8.20786-4.4234-19.981-15.20975-40.193-30.14282-59.67221-45.97525-12.08853-9.82538-23.09631-20.99335-34.38635-31.77115-1.3302-1.26984-1.93133-3.88788-1.932-5.88123q-.02983-92.71779.18131-185.43562a136.01053,136.01053,0,0,1,.69894-15.45233c.244-2.09453,1.85776-4.05878,2.96155-6.01857,3.92783-6.97408,8.00992-13.86316,11.84088-20.88951a102.03228,102.03228,0,0,1,35.17435-37.90959,192.60741,192.60741,0,0,1,28.60495-15.01956A95.94527,95.94527,0,0,1,374.349,173.671c16.934-.02616,34.26422-.67851,50.683,2.62391,13.60456,2.73637,27.09372,9.32312,38.88486,16.91917,12.98819,8.36724,24.20215,19.59024,35.71066,30.09332,3.67011,3.34944,6.109,8.20787,8.58808,12.66672,4.2315,7.611,8.05011,15.45163,12.04052,23.19661a5.008,5.008,0,0,1,.64466,1.34367c1.71154,10.5064,4.75592,21.005,4.85363,31.53008.52759,56.81306.32544,113.633.35767,170.45048.00073,1.31653-.20056,2.63318-.29889,3.8425-34.18765,29.59366-69.47427,57.41745-107.36569,84.18366-1.24539-3.54929-2.38013-5.28656-2.38879-7.02939-.165-33.31635-.477-66.63663-.08374-99.94815.11471-9.71674,2.27066-19.41556,3.62539-29.10379a6.63187,6.63187,0,0,1,1.81223-3.44281c13.24554-13.4765,26.57284-26.87262,39.84417-40.32388,5.24936-5.32053,10.628-10.5373,15.55472-16.14655,6.63727-7.55688,6.53433-23.92267-.8005-30.69386-3.08066-2.84395-8.20292-4.63858-12.48169-4.81116-14.63953-.59041-29.31662-.24594-43.97937-.2659-4.60834-.00627-6.27448,2.41125-7.5604,6.82014-4.63995,15.90825-1.77005,32.09339-2.45926,48.12464-.24762,5.76013-2.08255,8.18985-7.952,7.94754-7.31854-.30209-14.659-.03815-21.98926-.1012-5.71136-.04907-8.60339-3.112-8.6698-8.73214-.10626-8.9954.15372-18.00123-.1853-26.98591a148.71815,148.71815,0,0,0-2.10648-21.69473c-.38974-2.08362-3.93243-5.04858-6.0871-5.09752-16.81771-.38206-33.64962-.19668-50.4765-.08526-6.0278.03993-8.99182,4.58027-11.87527,8.86486-3.88831,5.77771-3.56226,20.149,1.34543,25.0234,10.22369,10.15438,21.1633,19.58377,31.5404,29.58932,7.27619,7.01569,13.7684,14.864,21.22135,21.672,10.31466,9.42206,8.27038,22.027,8.52941,33.42868.8097,35.63632.40091,71.30048.417,106.95386C363.2428,545.89,362.75888,547.297,362.247,550.08658Zm107.72067-50.144q-.86852-1.36309-1.737-2.72611c-4.48492,2.29517-9.046,4.45435-13.4386,6.91434-8.65429,4.84668-17.21515,9.86017-25.81466,14.80469q-1.27593-.61593-2.55188-1.23182.87414,4.87042,1.74835,9.74085c2.80911-.66629,6.13049-.59525,8.33728-2.12845,8.85394-6.15124,17.3815-12.77438,25.987-19.2796C465.05975,504.1001,467.48172,501.979,469.96768,499.94257Zm-152.2583-.31965c-1.292,6.57917,26.86414,28.88855,33.6853,28.59726,3.07959-4.7507,3.04111-11.80386-.27963-14.82583l-5.05185,3.29779Z"/>
    <path d="M228.23943,467.10284l-12.76764-7.33764-1.36733,1.23172c1.13539,1.61014,1.99333,3.55017,3.45152,4.77646,8.92215,7.50326,18.03667,14.77746,26.97487,22.262,6.73694,5.64127,6.66227,5.73047,11.58078,15.85761,4.89472-2.18992,9.83387-4.39966,15.16645-6.78547,4.594,7.235-.32679,11.50245-5.27726,18.58048,2.25428,1.09476,4.83268,1.79532,6.71476,3.34274,33.71112,27.717,67.474,55.375,100.84948,83.49231,5.58545,4.70551,10.32044,10.47846,18.21814,9.11408,7.4115-1.28028,9.77091,3.86,13.98886,8.65661l-74.748,89.772c-2.35422-4.56042-4.10251-7.80889-5.71952-11.12146-1.39254-2.85272-2.06048-6.27575-4.05233-8.57873-5.94892-6.87817-5.87055-14.78223-5.37665-23.09406.9252-15.57116,1.73505-31.15936,2.04288-46.75128.0997-5.05108-2.2678-8.73736-7.90094-11.27112-5.31122-2.389-9.27726-7.79711-13.79032-11.92611-8.32245-7.61417-16.58832-15.29038-24.93072-22.88254a44.37092,44.37092,0,0,0-7.359-5.9689c-2.699-1.55106-5.954-2.09806-8.81937-3.405-3.97647-1.81375-8.21051-3.417-11.60992-6.04672-3.76038-2.90888-6.11255-2.80158-9.19946.77877-5.05912,5.868-8.03371,12.19031-8.56377,20.14777-.27669,4.15372-2.54733,8.674-5.15927,12.075a295.18225,295.18225,0,0,1-21.23746,25.06342c-5.68919,5.90863-12.94974,9.2752-22.30826,6.4433-9.51687,11.36938-19.16083,22.89062-28.66884,34.24945-9.081-2.31861-15.93223-6.41309-20.91313-14.50177,9.47579-11.43958,18.86591-22.7757,28.85155-34.83081-1.14012-1.42957-2.176-3.26856-3.69074-4.53449-6.643-5.55164-13.62674-10.70972-20.09442-16.45254-5.58433-4.95847-10.73982-10.41724-15.90454-15.827-8.19549-8.58435-6.5961-18.0249-2.35066-27.8039a128.56207,128.56207,0,0,0,4.83116-14.064c2.0123-6.65805,3.82152-13.378,5.68016-20.08179,1.9861-7.16357,4.10811-14.29681,5.81856-21.52658.9304-3.93265-.70453-6.61108-4.46011-8.9592-5.885-3.67953-11.19208-8.31-16.61094-12.70184-7.24588-5.87256-14.38956-11.8725-21.51128-17.8956-1.07017-.90506-1.78239-2.23334-3.27263-4.15594l5.38155-3.49439c-2.69187-3.26871-5.0151-6.08975-7.8014-9.47311,2.01195-2.2237,3.67333-4.05988,5.71844-6.32019,10.14019,8.41491,19.69986,16.34811,29.56763,24.537l5.26292-2.86093c-11.77308-9.84057-22.71435-18.9859-33.647-28.124.22748-2.31021.4198-4.26318.69344-7.04212-4.23325-3.60147-8.683-7.54846-13.30172-11.28662-14.61816-11.83114-29.3774-23.4906-43.8319-35.51715-1.394-1.15982-2.22951-5.54016-1.3111-6.50082,4.66234-4.87668,9.98895-9.11832,15.08285-13.58243l-.78976-1.70868c1.691.8561,3.611,1.43436,5.03791,2.61078q24.28836,20.02441,48.43532,40.22022c3.80553,3.17611,7.42223,6.72146,11.5704,3.75793,18.2467,6.49622,31.42894,18.70834,45.24469,30.12173,6.578,5.43418,14.058,9.78547,21.209,14.5066.98028.64715,2.42343.5932,3.84577.90646.47413-1.3306,1.272-2.381,1.03951-3.09668-3.16177-9.7326,5.36154-13.40158,10.11432-18.71783,1.31393-1.46973,6.32667-1.76087,7.97363-.46763,13.06886,10.262,25.71431,21.062,38.53679,31.63981,3.868,3.19085,3.53366,6.33056.43131,9.80938C235.68066,458.31314,232.28772,462.38565,228.23943,467.10284ZM193.5813,538.79105l-1.8064-1.82795a45.39769,45.39769,0,0,1,3.3927-5.47805c2.40639-2.91736,2.15113-5.64234-.56227-7.86533q-16.20644-13.2773-32.63154-26.28674c-4.008-3.17661-7.71686-2.45859-9.62815,2.33786-3.29408,8.26669-6.21675,16.68567-9.13737,25.09558-2.81587,8.10831-5.86637,16.17386-8.0069,24.46646-1.92473,7.45663-4.36206,15.51849,2.781,21.88028,6.58293,5.86294,13.30669,11.58774,20.22833,17.04367,4.9217,3.87942,9.24051,3.0434,13.28618-1.89249,5.27046-6.43011,10.69794-12.74316,15.7029-19.37448,2.47424-3.27817,4.15307-7.15671,6.0195-10.4588,4.429-4.159,9.54027-7.79407,12.90658-12.64108,1.54056-2.2182.834-7.72113-.98361-10.12085-2.3911-3.15686-5.05331.10379-7.16864,2.3674C196.833,537.257,195.0658,537.89194,193.5813,538.79105Z"/>
  </g>
</svg>
