<svg xmlns="http://www.w3.org/2000/svg" viewBox="0 0 90.473 90.473">
  <defs>
    <style>
      .a {
        fill: #fff;
      }
    </style>
  </defs>
  <path class="a" d="M45.74094,1a44.23048,44.23048,0,0,0-44.084,40.689l23.71,9.803a12.44374,12.44374,0,0,1,7.047-2.179c.234,0,.467.01.698.021l10.544-15.283v-.216a16.6825,16.6825,0,1,1,16.683,16.684c-.127,0-.253,0-.379-.01l-15.038,10.73c.01.195.015.394.015.592a12.52223,12.52223,0,0,1-24.799,2.467l-16.957-7.006A44.23581,44.23581,0,1,0,45.74094,1"/>
  <path class="a" d="M29.37794,68.122l-5.434-2.245a9.39663,9.39663,0,1,0,5.143-12.848l5.613,2.321a6.91823,6.91823,0,1,1-5.322,12.772"/>
  <path class="a" d="M71.45293,33.835a11.116,11.116,0,1,0-11.116,11.115,11.12844,11.12844,0,0,0,11.116-11.115m-19.448-.019a8.351,8.351,0,1,1,8.351,8.35,8.3503,8.3503,0,0,1-8.351-8.35"/>
</svg>
