<svg xmlns="http://www.w3.org/2000/svg" viewBox="0 0 372.36822 372.57278">
  <defs>
    <style>
      .a {
        fill: #fff;
      }
    </style>
  </defs>
  <path class="a" d="M167.71974,371.80673a185.809,185.809,0,0,1-82.6694-29.324c-20.90434-13.63886-25.625-19.24555-25.625-30.4346,0-22.47525,24.71192-61.84015,66.9925-106.71585,24.01246-25.48632,57.46022-55.36,61.0775-54.55106,7.0309,1.57237,63.25047,56.41052,84.29655,82.22519,33.28076,40.82147,48.581,74.24536,40.808,89.14682-5.9087,11.32751-42.57224,33.46689-69.50776,41.97241-22.19984,7.0101-51.35537,9.98129-75.37239,7.68109ZM31.19163,288.6803c-17.371-26.64955-26.14746-52.8857-30.38477-90.832-1.39917-12.53-.89778-19.697,3.17715-45.41514,5.07882-32.054,23.333-69.13639,45.26714-91.95762,9.34191-9.71974,10.17623-9.95654,21.56341-6.12048,13.82835,4.65843,28.59593,14.85745,51.49836,35.56661l13.36254,12.08287-7.29691,8.96431C94.50611,152.58151,58.74888,211.566,45.27307,248.0582c-7.326,19.83862-10.28084,39.7528-7.12868,48.04364C40.27257,301.69937,38.31778,299.61276,31.19163,288.6803Zm304.91544,4.53256c1.71606-8.3772-.45441-23.76257-5.54129-39.28-11.01667-33.606-47.83963-96.12421-81.65282-138.63054l-10.64435-13.38093,11.51587-10.57409c15.0363-13.80664,25.476-22.07384,36.74025-29.09452,8.88883-5.54015,21.5911-10.44455,27.05112-10.44455,3.36627,0,15.21722,12.29872,24.78421,25.72061,14.81726,20.78771,25.71783,45.987,31.24045,72.21969,3.56833,16.9498,3.86569,53.23127.57486,70.13935a221.06608,221.06608,0,0,1-13.9661,44.082c-4.16824,9.14656-14.53522,26.91045-19.07831,32.69075-2.33569,2.97174-2.33761,2.96527-1.02392-3.44769ZM170.7908,45.4623c-15.60147-7.92267-39.6696-16.42717-52.96494-18.71521a97.01542,97.01542,0,0,0-17.6688-.99412c-10.96961.55394-10.47966-.0197,7.11783-8.33366A180.95819,180.95819,0,0,1,150.67534,2.96409c18.6362-3.91309,53.66558-3.959,72.00506-.0944,19.80818,4.17411,43.133,12.85409,56.27622,20.94239L282.863,26.216l-8.96247-.45258c-17.81-.89937-43.76574,6.29588-71.63269,19.85746-8.40538,4.09052-15.71788,7.35751-16.25,7.26S178.63354,49.445,170.7908,45.4623Z" transform="translate(-0.10229 -0.00002)"/>
</svg>
